# xmcd
#
# Track frame offsets: 
#        150
#        16382
#        33160
#        49010
#        67037
#        86107
#        105455
#        129175
#        143032
#        154992
#        166650
#        177870
#        188615
#        209827
#        222177
#        234945
#        256152
#
# Disc length: 3671 seconds
#
# Revision: 2
# Processed by: cddbd v1.5.1PL0 Copyright (c) Steve Scherf et al.
# Submitted via: ExactAudioCopy v0.95a4
#
DISCID=e00e5511
DTITLE=Os Ingenuos - Choros from Brazil
DYEAR=1992
DGENRE=Latin
TTITLE0=Gostosinho (Tasty)
TTITLE1=Vespers
TTITLE2=Vou Vivendo (I'm getting on)
TTITLE3=Apanhei-te cavaquinho (I've got you cavaquinho!)
TTITLE4=Delicado (Delicate)
TTITLE5=Saxophone Porque Choras? (Saxophone, why are you crying?)
TTITLE6=Noites Cariocas (Nights in Rio)
TTITLE7=Choro Negro (Black Choro)
TTITLE8=Seguera-ele (Hold Him!)
TTITLE9=Assanhado (Impetuous)
TTITLE10=Brasileirinho
TTITLE11=Tico-Tico No Fuba
TTITLE12=Floreaux
TTITLE13=Na Gloria (In Heaven)
TTITLE14=Uma Noite no Sumare (A Night in Sumare)
TTITLE15=Ternura (Tenderness)
TTITLE16=Bole Bole
EXTD=
EXTT0=
EXTT1=
EXTT2=
EXTT3=
EXTT4=
EXTT5=
EXTT6=
EXTT7=
EXTT8=
EXTT9=
EXTT10=
EXTT11=
EXTT12=
EXTT13=
EXTT14=
EXTT15=
EXTT16=
PLAYORDER=
